<svg xmlns="http://www.w3.org/2000/svg" xmlns:xlink="http://www.w3.org/1999/xlink" width="800" height="100" viewBox="0 0 824 124"><path transform="translate(0 100)" d="M94.5,-71.3L94.5,-64L4.8,-64L4.8,-71.3L31.2,-71.3Q27.3,-79.1 25.6,-82.1L33.3,-84.3Q35.3,-81 40,-71.3L59.2,-71.3Q62.1,-76.1 66.6,-84.2L74.4,-81.9Q69.8,-74.2 68,-71.3L94.5,-71.3ZM78.4,-57.5L86.1,-57.5L86.1,-5.7Q86.1,-1.1 85.05,1.5Q84,4.1 81.25,5.3Q78.5,6.5 73.4,6.5Q67.9,6.5 61.9,5.9L60.5,-1.7Q66.6,-0.9 71.4,-0.9Q75.7,-0.9 77.05,-2.4Q78.4,-3.9 78.4,-7.8L78.4,-57.5ZM12.1,6.7L12.1,-55.2L48.3,-55.2L48.3,-4.4Q48.3,0.1 47.15,2.45Q46,4.8 43.4,5.7Q40.8,6.6 36.1,6.6Q32.9,6.6 29.7,6.3L28.1,-1.1Q31.7,-0.5 35.8,-0.5Q38.8,-0.5 39.7,-1.55Q40.6,-2.6 40.6,-5.7L40.6,-14.2L19.8,-14.2L19.8,6.7L12.1,6.7ZM58.9,-53.5L66.1,-53.5L66.1,-10.7L58.9,-10.7L58.9,-53.5ZM40.6,-38.1L40.6,-47.8L19.8,-47.8L19.8,-38.1L40.6,-38.1ZM19.8,-31L19.8,-21.3L40.6,-21.3L40.6,-31L19.8,-31Z"></path><path transform="translate(100 100)" d="M83.1,-78.9L90.3,-78.9L90.3,-57.5L40,-57.5L40,-78.9L47.3,-78.9L47.3,-64L61.5,-64L61.5,-84.3L69,-84.3L69,-64L83.1,-64L83.1,-78.9ZM35.3,-67.2L35.3,-59.9L4.8,-59.9L4.8,-67.2L17.3,-67.2L16.3,-71.6Q15.9,-73.3 15.15,-76.55Q14.4,-79.8 14,-81.1L20.9,-82.6Q21.6,-80.2 24,-70.1Q24.2,-69.4 24.7,-67.2L35.3,-67.2ZM35.6,-15.1L36.3,-7.6L18.8,-3.4L5,-0L3.5,-7.2L19.8,-11.2Q21.7,-19.9 23.7,-33.05Q25.7,-46.2 26.7,-55.1L33.6,-53.9Q30.4,-30.9 26.9,-12.9L35.6,-15.1ZM12,-17.4L10.9,-25.4Q10.7,-26.9 9.3,-36.7Q7.9,-46.5 6.6,-52.8L12.9,-54.1Q14.2,-48.1 15.65,-38.6Q17.1,-29.1 17.4,-27L18.6,-18.8L12,-17.4ZM94.8,-42.6L68.3,-42.6Q66.3,-36.9 65,-33.4L91.9,-33.4L91.9,-2.2Q91.9,3.1 89.95,5Q88,6.9 83.3,6.9Q80.6,6.9 77.6,6.5L76.3,0.2Q79.5,0.6 82.2,0.6Q83.7,0.6 84.2,-0.25Q84.7,-1.1 84.7,-3.7L84.7,-26.7L75.8,-26.7L75.8,0.1L69.2,0.1L69.2,-26.7L60.9,-26.7L60.9,1.7L54.2,1.7L54.2,-26.7L45.7,-26.7L45.7,6.5L39,6.5L39,-33.4L57.1,-33.4Q58.4,-36.8 60.3,-42.6L36.9,-42.6L36.9,-49.3L94.8,-49.3L94.8,-42.6Z"></path><path transform="translate(200 100)" d="M16.5,-65.2L16.5,-51L8.3,-51L8.3,-72.9L47,-72.9Q43.7,-79.8 42.2,-82.2L50.6,-84.5L56.5,-72.9L91.6,-72.9L91.6,-50.9L83.3,-50.9L83.3,-65.2L16.5,-65.2ZM94.4,-28.9L94.4,-21.1L54.7,-21.1L54.7,-6.9Q54.7,-1.3 53.6,1.5Q52.5,4.3 49.85,5.35Q47.2,6.4 41.9,6.4Q37.7,6.4 29.5,5.6L27.9,-2.2Q34.9,-1.2 40.4,-1.2Q43.1,-1.2 44.3,-1.75Q45.5,-2.3 45.95,-3.95Q46.4,-5.6 46.4,-9.1L46.4,-21.1L5.3,-21.1L5.3,-28.9L46.4,-28.9L46.4,-35.5L64.5,-46.9L21.2,-46.9L21.2,-54.6L78.6,-54.6L78.6,-47L54.7,-32.3L54.7,-28.9L94.4,-28.9Z"></path><path transform="translate(300 100)" d="M90.2,-7.7Q80.9,-18.2 74.25,-31.35Q67.6,-44.5 64.7,-58.2L64.7,-17.1L80.6,-17.1L80.6,-10L64.7,-10L64.7,7.5L56.6,7.5L56.6,-10L41.3,-10L41.3,-17.1L56.6,-17.1L56.6,-58.2Q53.4,-44.4 47.2,-32.35Q41,-20.3 30.6,-7.4L25.5,-14.6Q42.9,-34.4 50.2,-59.3L31,-59.3L31,-66.9L56.6,-66.9L56.6,-84L64.7,-84L64.7,-66.9L92.4,-66.9L92.4,-59.3L70.9,-59.3Q74.2,-47.3 80.6,-35.85Q87,-24.4 95.7,-14.7L90.2,-7.7ZM32.1,-82.1Q28.5,-69.9 23.8,-59.2L23.8,6.8L16.1,6.8L16.1,-43.8Q11.7,-36 7.3,-30.4L3.5,-39.4Q9.3,-47.5 15.1,-59.5Q20.9,-71.5 24.4,-83.5L32.1,-82.1Z"></path><path transform="translate(400 100)" d="M42.8,-17.1Q35.8,-12.9 24.4,-5.3L19.4,-1.7L14.5,-8.7Q16.5,-10.4 17.1,-11.75Q17.7,-13.1 17.7,-15.3L17.7,-47.5L4.8,-45.7L4,-54.1L17.7,-55.9L17.7,-83.9L25.6,-83.9L25.6,-57L40.3,-58.9L40.6,-50.7L25.6,-48.6L25.6,-15.4L40.9,-25.8L42.8,-17.1ZM40.4,-76.2L91.1,-76.2Q91.1,-61.1 90.25,-40.4Q89.4,-19.7 88.2,-10.3Q87.5,-4.9 86,-1.8Q84.5,1.3 81.4,2.8Q78.3,4.3 72.9,4.4Q66.7,4.6 61.6,3.9L60,-4.2Q66.1,-3.1 69.9,-3.1Q73.7,-3.1 75.65,-3.85Q77.6,-4.6 78.6,-6.75Q79.6,-8.9 80.1,-13.5Q82.4,-33.9 82.4,-67.7L62.1,-67.7Q61.9,-58.1 61.6,-52.4Q61.1,-36.3 58.9,-26.45Q56.7,-16.6 51.6,-8.8Q46.5,-1 36.6,8.6L29.4,2.7Q39.6,-6.3 44.25,-12.95Q48.9,-19.6 50.8,-28.25Q52.7,-36.9 53.4,-53.2L53.8,-67.7L40.4,-67.7L40.4,-76.2Z"></path><path transform="translate(500 100)" d="M90.5,-50.2L28.2,-50.2Q28.2,-42 27.7,-33.8L75.4,-33.8L75.4,7.3L67.4,7.3L67.4,-26.2L27.1,-26.2Q25.9,-15.7 23,-7.7Q20.1,0.3 14.7,8.2L6.8,3.6Q12.3,-3.9 15.2,-11.55Q18.1,-19.2 19.2,-28.8Q20.3,-38.4 20.3,-53.2L20.3,-81.9L28.2,-81.9L28.2,-57.8L61.1,-57.8L61.1,-83.2L69.1,-83.2L69.1,-57.8L90.5,-57.8L90.5,-50.2Z"></path><path transform="translate(600 100)" d="M22.2,-63.4Q19.3,-66.4 14.9,-70.45Q10.5,-74.5 7.7,-76.6L12.1,-82.4Q15.3,-80.1 19.7,-76.25Q24.1,-72.4 27,-69.5L22.2,-63.4ZM83.6,-82.1L90.5,-82.1L90.5,-5.9Q90.5,0.3 88.4,2.85Q86.3,5.4 81.2,5.4Q76.1,5.4 72.3,4.9L70.9,-2.4Q76,-1.7 79.7,-1.7Q81.8,-1.7 82.7,-3.15Q83.6,-4.6 83.6,-8.2L83.6,-82.1ZM54.4,-70.3L36.1,-70.3L36.1,-18.7L29.4,-18.7L29.4,-77.8L61.1,-77.8L61.1,-19L54.4,-19L54.4,-70.3ZM69,-73.4L75.6,-73.4L75.6,-16L69,-16L69,-73.4ZM47.1,-21.6Q54.7,-14.3 64.9,-3.3L59.5,2Q52.8,-6.6 45.3,-14.9Q43.1,-8.9 38.85,-4Q34.6,0.9 27,6.5L22.2,1Q31.1,-5.3 35.25,-10.45Q39.4,-15.6 40.7,-21.6Q42,-27.6 42,-38.2L42,-64.9L48.3,-64.9L48.3,-38.2Q48.3,-27.9 47.1,-21.6ZM19.8,-39.2Q16.3,-42.8 11.6,-47.05Q6.9,-51.3 3.6,-53.8L8.3,-59.6Q11.6,-57.1 16.55,-52.85Q21.5,-48.6 24.8,-45.3L19.8,-39.2ZM23.3,-30.2Q19.2,-11.8 13.1,5.6L5.9,3.2Q12.3,-15.1 16.2,-32.5L23.3,-30.2Z"></path><path transform="translate(700 100)" d="M95.6,-18.4Q95,-14.6 93.85,-9.85Q92.7,-5.1 91.9,-2.5Q89.5,6.1 83.9,6.1Q77.6,6.1 73.1,-3Q70,-9.8 68.1,-22.35Q66.2,-34.9 65,-57.2L32.4,-57.2L32.4,-64.9L64.7,-64.9L64.2,-84.4L71.7,-84.4L71.7,-82.1Q71.9,-70.4 72.2,-64.9L94,-64.9L94,-57.2L72.5,-57.2Q73.5,-36.7 75.15,-25.4Q76.8,-14.1 79.7,-7.9Q81.9,-3.3 83.9,-3.3Q84.8,-3.3 85.6,-4.9Q86.4,-6.5 87.1,-10.1L89,-21.1L95.6,-18.4ZM87,-66.7Q84.7,-69.2 80.9,-72.8Q77.1,-76.4 74.9,-78.2L79.6,-83.2Q81.9,-81.3 85.65,-77.85Q89.4,-74.4 91.8,-71.9L87,-66.7ZM22.7,-60Q20.1,-63.5 15.75,-68.75Q11.4,-74 8.5,-77.2L14.9,-82.3Q17.8,-79.2 22.1,-74.05Q26.4,-68.9 29,-65.4L22.7,-60ZM34.4,-14.8Q29.2,-9.6 21.8,-1.4Q19.7,1 17.1,4.1L11.9,-1.7Q13.5,-3.3 14.2,-5Q14.9,-6.7 14.9,-9.1L14.9,-43.7L3.2,-43.7L3.2,-52L22.4,-52L22.4,-12.2L30.3,-21.2L34.4,-14.8ZM51.3,-11.9L64.6,-14.6L65.1,-6.7Q54.6,-4.5 31.9,-0.3L31.1,-8L43.9,-10.4L43.9,-34.7L32.8,-34.7L32.8,-42.6L62.8,-42.6L62.8,-34.7L51.3,-34.7L51.3,-11.9Z"></path></svg>